<?xml version="1.0" encoding="UTF-8" standalone="no"?>
<svg xmlns="http://www.w3.org/2000/svg" width="690" height="783">
  <path fill="#fd5" stroke="#000" stroke-linecap="square" stroke-linejoin="bevel" stroke-width="10" d="M4.026605 254.50179 243.40737 240.6262 367.7824 4.8187081 453.51803 261.78478l232.76786 66.16072-186.36291 173.86826 18.12629 275.93084-200.1116-150.95982L98.294815 732.14193l60.625005-266.96429z"/>
  <g fill="none" transform="translate(-307 59.5)">
    <path d="M210.625 401.39285c-21.92562-96.06094 92.99832-94.68607 74.64286.0893z"/>
    <path d="M263.25 338.15625c-6.47336 1.46766-11.3125 7.36514-11.3125 14.4375 0 8.17592 6.45574 14.8125 14.4375 14.8125 7.81886 0 14.18079-6.36742 14.4375-14.3125l-17.5625-14.9375z"/>
  </g>
  <g stroke="#000" stroke-linejoin="round" transform="matrix(1.1421 0 0 1 38.733976 -26.07251)">
    <path fill="#fff" stroke-width="9" d="M274.57769 427.46536c-21.92562-96.06094 92.99832-94.68607 74.64286.0893z"/>
    <path stroke-linecap="square" stroke-width="7.87453127" d="M327.20269 364.22876c-6.47336 1.46766-11.3125 7.36514-11.3125 14.4375 0 8.17592 6.45574 14.8125 14.4375 14.8125 7.81886 0 14.18079-6.36742 14.4375-14.3125l-17.5625-14.9375z"/>
  </g>
  <g stroke="#000" stroke-linejoin="round" transform="matrix(1.1421 0 0 1 -103.26601 -26.57251)">
    <path fill="#fff" stroke-width="9" d="M274.57769 427.46536c-21.92562-96.06094 92.99832-94.68607 74.64286.0893z"/>
    <path stroke-linecap="square" stroke-width="7.87453127" d="M327.20269 364.22876c-6.47336 1.46766-11.3125 7.36514-11.3125 14.4375 0 8.17592 6.45574 14.8125 14.4375 14.8125 7.81886 0 14.18079-6.36742 14.4375-14.3125l-17.5625-14.9375z"/>
  </g>
  <path fill="#871945" stroke="#000" stroke-linejoin="round" stroke-width="10" d="M218.74695 439.85355c.051.44787-1.26665.0987-1.213.54355.0754.62525 11.77649 1.68944 11.85706 2.30868C251.80062 614.9354 472.83451 554.62008 432.6875 439.5z"/>
  <path fill="#fbc0df" d="M359.59375 495.5c-27.24284 0-50.02721 18.91703-55.71095 44.2209 25.82573 9.42185 71.31253 8.70348 102.92895-19.43059-10.27236-14.95554-27.59064-24.79031-47.218-24.79031z"/>
</svg>